<?xml version="1.0" standalone="no"?>
<!DOCTYPE svg PUBLIC "-//W3C//DTD SVG 20010904//EN"
 "http://www.w3.org/TR/2001/REC-SVG-20010904/DTD/svg10.dtd">
<svg version="1.0" xmlns="http://www.w3.org/2000/svg"
 width="512.000000pt" height="512.000000pt" viewBox="0 0 512.000000 512.000000"
 preserveAspectRatio="xMidYMid meet">
<g transform="translate(0.000000,512.000000) scale(0.100000,-0.100000)"
fill="#535353" stroke="none">
<path d="M2330 5109 c-205 -19 -462 -77 -645 -144 -161 -59 -390 -176 -535
-273 -387 -258 -683 -594 -885 -1007 -89 -181 -136 -307 -180 -480 -76 -299
-101 -587 -75 -870 31 -334 109 -611 255 -910 251 -511 663 -924 1170 -1170
241 -117 451 -185 715 -232 153 -26 677 -26 830 0 264 47 474 115 715 232 507
246 919 659 1170 1170 117 238 185 450 232 715 26 153 26 677 0 830 -47 265
-115 477 -232 715 -202 413 -498 749 -885 1007 -145 97 -374 214 -535 273
-336 124 -757 178 -1115 144z m485 -424 c712 -83 1336 -519 1662 -1160 536
-1057 115 -2345 -944 -2883 -95 -48 -296 -132 -317 -132 -2 0 -6 114 -8 253
-4 204 -8 262 -23 307 -28 89 -64 150 -120 207 -48 47 -51 53 -30 53 65 0 274
45 396 86 398 132 607 373 691 796 33 165 33 454 0 583 -28 113 -105 271 -172
353 l-51 63 21 67 c43 138 37 317 -17 495 -30 100 -34 103 -136 95 -117 -10
-309 -88 -479 -195 l-96 -61 -97 24 c-178 43 -335 57 -579 51 -218 -4 -355
-21 -502 -61 l-51 -13 -69 44 c-96 62 -269 148 -360 179 -48 16 -111 28 -165
31 l-87 6 -30 -94 c-57 -178 -63 -332 -22 -496 l19 -74 -54 -72 c-154 -201
-215 -453 -186 -760 25 -259 86 -448 196 -602 87 -122 242 -248 379 -309 129
-57 345 -115 493 -131 l62 -7 -49 -48 c-26 -26 -62 -75 -79 -108 -53 -105 -61
-160 -61 -430 l0 -243 -22 6 c-368 112 -749 364 -999 664 -618 738 -678 1775
-150 2572 446 673 1233 1038 2036 944z"/>
</g>
</svg>
