<?xml version="1.0" standalone="no"?>
<!DOCTYPE svg PUBLIC "-//W3C//DTD SVG 20010904//EN"
 "http://www.w3.org/TR/2001/REC-SVG-20010904/DTD/svg10.dtd">
<svg version="1.0" xmlns="http://www.w3.org/2000/svg"
 width="700.000000pt" height="700.000000pt" viewBox="0 0 700.000000 700.000000"
 preserveAspectRatio="xMidYMid meet">
<g transform="translate(0.000000,700.000000) scale(0.100000,-0.100000)"
fill="#535353" stroke="none">
<path d="M2075 6244 c-49 -7 -112 -21 -140 -29 -27 -9 -66 -20 -85 -26 -126
-38 -296 -124 -434 -219 -144 -99 -347 -315 -420 -445 -9 -16 -28 -48 -41 -70
-37 -60 -80 -153 -114 -245 -25 -69 -74 -251 -68 -256 2 -3 -2 -30 -9 -62 -20
-84 -20 -2650 0 -2734 7 -32 11 -59 9 -62 -11 -11 93 -347 110 -354 4 -2 7 -9
7 -15 0 -13 51 -119 61 -127 3 -3 9 -15 13 -27 4 -13 12 -23 17 -23 5 0 9 -6
9 -12 0 -7 25 -46 55 -86 30 -40 55 -75 55 -78 0 -8 258 -265 300 -298 134
-108 330 -213 502 -269 103 -34 144 -44 272 -67 84 -14 2615 -14 2705 1 274
45 521 146 721 295 148 110 350 327 405 434 10 19 21 37 24 40 3 3 13 19 22
35 8 17 24 48 36 70 27 52 43 90 76 180 22 60 68 234 65 248 -1 6 4 36 10 65
17 76 17 2648 0 2724 -6 29 -11 56 -10 61 3 11 -36 163 -60 232 -29 85 -30 89
-87 205 -56 113 -69 137 -88 158 -7 7 -13 17 -13 21 0 4 -8 16 -18 27 -10 10
-28 35 -41 54 -44 64 -315 325 -401 385 -92 65 -94 66 -220 130 -105 54 -207
89 -380 132 -58 15 -207 17 -1410 19 -1116 2 -1360 0 -1435 -12z m2755 -443
c25 -6 63 -17 85 -22 152 -40 345 -149 479 -271 79 -71 208 -223 228 -268 7
-16 16 -30 20 -30 5 0 8 -6 8 -14 0 -8 6 -21 13 -28 6 -7 23 -38 36 -68 13
-30 29 -67 37 -81 7 -14 11 -29 8 -31 -3 -3 2 -21 10 -39 19 -47 34 -118 46
-224 13 -122 13 -2400 0 -2520 -10 -87 -15 -111 -41 -205 -7 -25 -13 -49 -15
-55 -1 -5 -13 -36 -28 -67 -14 -31 -31 -67 -36 -80 -5 -13 -16 -32 -22 -42 -7
-11 -28 -45 -47 -75 -63 -102 -197 -237 -311 -314 -87 -58 -233 -128 -305
-146 -27 -7 -66 -16 -85 -21 -101 -26 -267 -30 -1380 -30 -1119 0 -1278 4
-1390 31 -150 36 -329 119 -436 201 -103 81 -334 330 -334 362 0 3 -12 25 -26
48 -24 38 -83 168 -88 193 -1 6 -7 24 -13 40 -16 43 -32 126 -43 225 -6 51
-10 552 -10 1260 1 1227 3 1297 44 1440 9 30 18 62 20 70 9 34 70 166 92 202
13 20 24 40 24 43 0 15 91 128 159 198 182 186 452 314 696 330 28 2 615 3
1305 2 966 -1 1265 -4 1300 -14z"/>
<path d="M4840 5337 c-115 -33 -205 -108 -255 -212 -25 -53 -28 -71 -29 -155
0 -85 3 -102 29 -155 37 -77 114 -153 190 -190 54 -26 70 -29 160 -28 89 0
106 3 160 29 71 34 141 100 181 170 7 11 20 53 29 93 22 89 12 162 -35 258
-55 112 -179 191 -311 199 -44 2 -92 -1 -119 -9z"/>
<path d="M3265 4909 c-260 -61 -386 -112 -565 -233 -92 -61 -290 -257 -351
-346 -24 -36 -47 -67 -50 -70 -35 -31 -168 -349 -169 -405 0 -11 -7 -38 -14
-60 -18 -51 -21 -114 -20 -345 1 -183 3 -193 46 -355 77 -287 261 -555 515
-746 104 -78 262 -163 368 -198 39 -13 80 -27 93 -32 81 -31 184 -43 382 -43
198 0 301 12 382 43 13 5 55 19 93 32 255 84 529 296 693 537 92 136 151 262
190 407 43 162 45 172 46 355 1 231 -2 294 -20 345 -7 22 -14 49 -14 60 -1 56
-134 374 -169 405 -3 3 -26 34 -50 70 -25 36 -97 117 -160 180 -218 218 -428
329 -741 394 -84 18 -415 21 -485 5z m377 -439 c29 -6 78 -15 108 -22 170 -34
468 -237 523 -355 6 -13 14 -23 19 -23 4 0 8 -7 8 -15 0 -8 4 -15 8 -15 11 0
100 -178 106 -212 1 -7 8 -32 14 -55 7 -24 17 -62 23 -84 24 -91 7 -426 -24
-476 -3 -5 -8 -20 -10 -34 -6 -31 -69 -173 -79 -177 -4 -2 -8 -9 -8 -16 0 -7
-9 -24 -21 -37 -11 -13 -27 -35 -34 -49 -14 -26 -171 -179 -221 -216 -56 -40
-192 -105 -274 -132 -72 -23 -168 -35 -280 -35 -112 0 -208 12 -280 35 -82 27
-218 92 -274 132 -50 37 -207 190 -221 216 -7 14 -23 36 -34 49 -12 13 -21 30
-21 37 0 7 -4 14 -8 16 -10 4 -73 146 -79 177 -2 14 -7 29 -10 34 -31 50 -48
385 -24 476 6 22 16 60 23 84 6 23 13 48 14 55 6 34 95 212 106 212 4 0 8 7 8
15 0 8 4 15 8 15 5 0 13 10 19 23 55 118 352 320 523 356 30 6 75 15 100 20
63 12 229 13 292 1z"/>
</g>
</svg>
