<?xml version="1.0" standalone="no"?>
<!DOCTYPE svg PUBLIC "-//W3C//DTD SVG 20010904//EN"
 "http://www.w3.org/TR/2001/REC-SVG-20010904/DTD/svg10.dtd">
<svg version="1.0" xmlns="http://www.w3.org/2000/svg"
 width="512.000000pt" height="512.000000pt" viewBox="0 0 512.000000 512.000000"
 preserveAspectRatio="xMidYMid meet">
<g transform="translate(0.000000,512.000000) scale(0.100000,-0.100000)"
fill="#000000" stroke="none">
<path d="M362 5096 c-146 -55 -246 -157 -299 -308 -17 -51 -18 -140 -18 -2228
0 -2088 1 -2177 18 -2228 54 -154 159 -259 312 -312 57 -20 83 -20 2185 -20
2102 0 2128 0 2185 20 153 53 258 158 312 312 17 51 18 140 18 2228 0 2088 -1
2177 -18 2228 -54 154 -159 259 -312 312 -57 20 -82 20 -2189 19 l-2131 0 -63
-23z m3801 -526 c164 -26 303 -146 359 -307 l23 -68 0 -1640 0 -1640 -23 -59
c-63 -167 -195 -280 -358 -306 -80 -13 -3128 -13 -3208 0 -163 26 -295 139
-358 306 l-23 59 0 1640 0 1640 23 68 c27 77 90 168 150 215 52 41 140 82 200
92 69 11 3144 12 3215 0z"/>
<path d="M958 4389 c-78 -18 -143 -74 -180 -154 l-23 -50 0 -1625 0 -1625 24
-53 c30 -67 98 -127 164 -147 76 -23 3158 -23 3234 0 66 20 134 80 164 147
l24 53 0 1625 0 1625 -23 51 c-27 60 -69 103 -132 136 l-45 23 -1585 2 c-898
0 -1601 -3 -1622 -8z m1307 -249 c147 -38 287 -140 335 -245 16 -38 23 -76 27
-157 l6 -108 -257 0 -256 0 0 80 0 80 -280 0 -280 0 0 -660 0 -660 280 0 280
0 0 235 0 235 -175 0 -175 0 0 190 0 190 431 0 430 0 -3 -452 c-3 -524 1 -500
-106 -606 -74 -72 -180 -127 -287 -147 -107 -21 -690 -21 -797 -1 -180 34
-335 152 -374 283 -11 37 -14 179 -14 734 0 753 -1 738 59 821 61 83 190 164
307 192 45 11 143 15 415 15 325 1 363 -1 434 -19z"/>
</g>
</svg>
