<?xml version="1.0" standalone="no"?>
<!DOCTYPE svg PUBLIC "-//W3C//DTD SVG 20010904//EN"
 "http://www.w3.org/TR/2001/REC-SVG-20010904/DTD/svg10.dtd">
<svg version="1.0" xmlns="http://www.w3.org/2000/svg"
 width="980.000000pt" height="980.000000pt" viewBox="0 0 980.000000 980.000000"
 preserveAspectRatio="xMidYMid meet">
<g transform="translate(0.000000,980.000000) scale(0.100000,-0.100000)"
fill="#535353" stroke="none">
<path d="M1070 9795 c-8 -2 -49 -9 -90 -15 -466 -76 -851 -450 -956 -930 -18
-82 -19 -216 -19 -3945 0 -4198 -4 -3902 56 -4086 115 -356 402 -643 758 -758
184 -60 -112 -56 4086 -56 3729 0 3863 1 3945 19 237 52 436 161 606 332 160
162 262 351 320 594 18 71 19 257 22 3890 2 2780 0 3840 -8 3908 -33 268 -147
507 -334 696 -160 163 -350 270 -586 329 l-85 21 -3850 2 c-2117 1 -3857 0
-3865 -1z m1580 -1665 c262 -74 467 -279 552 -550 20 -64 23 -96 23 -220 0
-167 -13 -227 -75 -357 -78 -161 -210 -291 -375 -369 -128 -60 -217 -77 -373
-72 -109 4 -139 9 -215 35 -258 91 -447 294 -518 559 -33 120 -30 299 5 417
45 151 111 261 218 363 112 108 254 181 403 210 95 18 259 11 355 -16z m4115
-2020 c344 -33 623 -142 853 -334 236 -197 406 -494 482 -842 55 -251 53 -203
57 -1806 l4 -1488 -670 0 -670 0 -4 1253 c-4 1369 -1 1305 -63 1507 -78 255
-226 408 -454 469 -106 28 -209 35 -324 21 -201 -24 -328 -82 -452 -205 -95
-94 -150 -185 -195 -324 -60 -186 -59 -170 -59 -1503 l0 -1218 -645 0 -645 0
0 2175 0 2175 643 -2 642 -3 5 -283 5 -284 42 60 c146 207 357 384 587 493
265 124 542 169 861 139z m-3647 -2297 l2 -2173 -675 0 -675 0 0 2168 c0 1193
3 2172 7 2175 3 4 306 6 672 5 l666 -3 3 -2172z"/>
</g>
</svg>
