<svg id="Camada_1" data-name="Camada 1" xmlns="http://www.w3.org/2000/svg" viewBox="0 0 737.66 200"><path d="M46.78,202.92a19.11,19.11,0,0,0-11.89,12c-.67,2-.71,5.47-.71,87.05s0,85.05.71,87A19.15,19.15,0,0,0,47.3,401.23c2.27.78,3.3.78,86.88.78s84.61,0,86.88-.78A19.11,19.11,0,0,0,233.46,389c.68-2,.72-5.47.72-87s0-85.05-.72-87.05a19.12,19.12,0,0,0-12.4-12.18c-2.27-.79-3.26-.79-87-.75H49.29Zm151.14,20.55a18.32,18.32,0,0,1,14.27,12l.92,2.66V366.26l-.92,2.31A18.24,18.24,0,0,1,198,380.52c-3.18.51-124.38.51-127.56,0a18.24,18.24,0,0,1-14.23-11.95l-.92-2.31V238.12l.92-2.66a20.55,20.55,0,0,1,6-8.39,20.71,20.71,0,0,1,7.95-3.6C72.83,223,195.09,223,197.92,223.47Z" transform="translate(-34.18 -202.01)" style="fill:#535353"/><path d="M70.48,230.54a10.61,10.61,0,0,0-7.16,6l-.91,1.95v127l1,2.07a11.33,11.33,0,0,0,6.52,5.75c3,.89,125.57.89,128.59,0a11.27,11.27,0,0,0,6.52-5.75l1-2.07v-127l-.92-2a10.89,10.89,0,0,0-5.24-5.31l-1.79-.9-63-.08C99.27,230.23,71.32,230.35,70.48,230.54Zm52,9.73c5.84,1.48,11.41,5.47,13.32,9.57.64,1.49.91,3,1.07,6.14l.24,4.21h-20.4v-6.25H94.42v51.57h22.26V287.15H102.77V272.31H137L136.88,290c-.12,20.48,0,19.54-4.21,23.68a23.08,23.08,0,0,1-11.41,5.74c-4.26.82-27.44.82-31.69,0-7.16-1.33-13.32-5.94-14.87-11.06-.44-1.44-.56-7-.56-28.67,0-29.42,0-28.83,2.34-32.08s7.56-6.4,12.21-7.5c1.79-.43,5.69-.58,16.5-.58C118.12,239.49,119.63,239.57,122.45,240.27Z" transform="translate(-34.18 -202.01)" style="fill:#535353"/><path d="M310.41,369Q286,369,270.77,351t-15.27-47q0-31.21,15.27-49.49,15-18,39.92-18,22.89,0,41.12,15.45l-5.84,22-1.06-.16q-2.46-15.82-11.05-24.62t-21.76-8.8q-17.81,0-27.6,15.91-10,16.29-10,46.27,0,29.22,10,45.89,9.86,16.29,26.76,16.29,14.72,0,20.27-13.46,2.4-5.89,2.4-24.78,0-12.54-2.82-16.9-3.17-5-13.45-6.27v-1.76q14,.76,21,.76,7.88,0,21-.76v1.76q-5.36,1.76-7.33,4.81t-2,9.87v21.26q0,6.12.42,12.16Q335.27,369,310.41,369Z" transform="translate(-34.18 -202.01)" style="fill:#535353"/><path d="M419.69,318q0-17.28-1.06-23.17-1.54-8.64-7-11.93V282c5.16.35,8.11.53,8.87.53l5-.15,5.07-.38v.92q-5.41,3-7.11,11.85-1.26,6.66-1.26,24.7v12.39q0,18.36-6.62,27.15t-20.63,8.88q-15.35,0-21.9-8.34-6.27-7.95-6.26-26.16,0-5.12.07-12.08t.14-8.8V293.13q0-8.33-5.42-10.24v-1q5.55.47,10.77.46c3.57,0,7.2-.15,10.91-.46v1q-5.49,1.61-5.49,10.24v28.23q0,19.58,1.69,26.69a21.3,21.3,0,0,0,6.69,11.47,17.57,17.57,0,0,0,12,4.28q21.62,0,21.61-31.28Z" transform="translate(-34.18 -202.01)" style="fill:#535353"/><path d="M436.11,341.32l.63.07a28.51,28.51,0,0,0,7.18,16.91q6.06,6.65,14.15,6.65,8.39,0,13.45-5.51t4.93-14q0-8-4.23-11a23.25,23.25,0,0,0-7.67-3.21l-2.18-.46L460,330.3c-2.06-.4-3.68-.74-4.85-1q-10.08-2.44-14.72-7.65-4.79-5.36-4.79-14.68,0-11.33,6.76-18.51,7.11-7.5,18.94-7.5a38,38,0,0,1,22.11,6.81l-3.38,15.07-.78-.16q-1.18-8.79-5.91-13.76a16,16,0,0,0-12.18-5.05,15.86,15.86,0,0,0-12,4.89,16.84,16.84,0,0,0-4.5,11.94q0,7.56,5.06,11.08a28.7,28.7,0,0,0,8.88,3.6l5.28,1.15,2.88.53,3,.69q16.05,3.75,16.05,20.65,0,12.85-7.25,21-7.45,8.42-19.78,8.42-15.78,0-26.48-8.26Z" transform="translate(-34.18 -202.01)" style="fill:#535353"/><path d="M487.79,300.48l4.09-18.21h54.91l4.09,18.21-.85.3q-8.81-15.67-19.36-15.68-4.15,0-5.35,3.06-.92,2.29-.92,10.71v33.58q0,17.58.92,23.17,1.26,7.19,5.49,8.95v1.3q-7.89-.62-11.83-.62-4.86,0-11.05.62v-1.3q4.16-1.68,5.35-8.95.91-5.43.92-23.17V298.87c0-5.61-.29-9.18-.85-10.71q-1-3.06-4.93-3.06-10.91,0-19.85,15.76Z" transform="translate(-34.18 -202.01)" style="fill:#535353"/><path d="M554.55,365.56q6.69-5.51,15.06-28.07l20.63-55.6H591l21.54,55,1.06,2.68,1,2.6c.8,2,1.46,3.64,2,4.82q2,5.19,3.52,8.33,3.66,7.65,7.25,10.25v.77q-6.9-.46-9.44-.46-6.54,0-15.2.46v-.77q4.21-1.83,4.22-6.81,0-3.51-3.73-13.84l-5.7-16.14c-1.23-.1-2.4-.17-3.53-.23H578.56c-1.13.06-2.16.13-3.1.23l-3.24,9.72q-4.44,12.76-4.44,18.05a9.06,9.06,0,0,0,5.85,9v.77a75.25,75.25,0,0,0-8.87-.46q-4.1,0-10.21.46Zm25.48-40,9,.08q4.92,0,7.11-.23l-9.72-26.54-9.79,26.54Q578.2,325.56,580,325.56Z" transform="translate(-34.18 -202.01)" style="fill:#535353"/><path d="M628.69,281.89q6.84.54,11.48.54c1.74,0,3.59-.08,5.56-.23,1.36-.05,3-.16,4.93-.31v1a5.5,5.5,0,0,0-4.37,5.73c0,1.38.78,4,2.33,7.88l20.56,52.92,13.16-38.24q5.07-14.52,5.07-20.26,0-7.65-5.77-8V282c3.66.3,6.87.46,9.64.46s6-.16,9.3-.46v.92q-6,2.37-16.69,32.42l-19.08,53.54h-.49l-24.43-66q-3.95-10.49-5.63-13.77c-1.79-3.47-3.64-5.53-5.57-6.19Z" transform="translate(-34.18 -202.01)" style="fill:#535353"/><path d="M711.08,293.59q9.93-12.46,25.41-12.46t25.56,12.62q9.8,12.38,9.79,31t-10,31.28q-10.07,12.86-25.06,12.85-15.42,0-25.49-12.77-9.93-12.54-9.93-31.36T711.08,293.59Zm9.08,61.88q6.06,10.69,16.62,10.7,10.07,0,16.12-10.55,6.4-11.08,6.41-30.67,0-19.74-6.2-30.59-6-10.56-16.62-10.56T720,294.28q-6,10.71-6,30.59Q714,344.54,720.16,355.47Z" transform="translate(-34.18 -202.01)" style="fill:#535353"/></svg>