<svg xmlns="http://www.w3.org/2000/svg" viewBox="0 0 415.59 99.46"><defs><style>.cls-1{fill:#fff;}</style></defs><g id="Camada_2" data-name="Camada 2"><g id="Camada_2-2" data-name="Camada 2"><path class="cls-1" d="M155.91,49.74l.05,0c-.05,0-.06,0-.05,0"/><path class="cls-1" d="M284.05,45.1l0,0,0,0"/><path class="cls-1" d="M149.33,20.69h6.9a1.26,1.26,0,0,1,1.12.68l11.27,25.24,11.17-25.24a1.24,1.24,0,0,1,1.11-.68h6.9V55.75h-5.33a.84.84,0,0,1-.83-.84V30.61L171.3,54.33a2.08,2.08,0,0,1-1.86,1.15h-1.75a2.1,2.1,0,0,1-1.86-1.14L155.44,30.61v24.3a.84.84,0,0,1-.83.84h-5.28Z"/><path class="cls-1" d="M218.09,29v26.8h-5.73a.84.84,0,0,1-.83-.84V50.79Q208.82,56,202.21,56a9.32,9.32,0,0,1-7.11-2.76,10.46,10.46,0,0,1-2.6-7.51V29h5.72a.85.85,0,0,1,.84.84v14a6.13,6.13,0,0,0,1.52,4.4,5.58,5.58,0,0,0,4.24,1.61,6.2,6.2,0,0,0,4.9-2.21,8.15,8.15,0,0,0,1.81-5.45V29.79a.84.84,0,0,1,.83-.84Z"/><path class="cls-1" d="M246.34,31.48A10.46,10.46,0,0,1,249,39V55.75h-5.72a.84.84,0,0,1-.84-.84v-14a6,6,0,0,0-1.6-4.43,5.86,5.86,0,0,0-4.36-1.63,6.57,6.57,0,0,0-5.13,2.21,8.07,8.07,0,0,0-1.88,5.5V54.91a.84.84,0,0,1-.83.84H223V29h5.68a.84.84,0,0,1,.83.84V34q2.74-5.16,9.62-5.26a9.58,9.58,0,0,1,7.26,2.78"/><path class="cls-1" d="M281.4,18.58V55.75h-5.68a.85.85,0,0,1-.84-.84V51.44a9.59,9.59,0,0,1-3.73,3.43,11.29,11.29,0,0,1-5.28,1.18,12.77,12.77,0,0,1-6.69-1.73,11.77,11.77,0,0,1-4.48-4.86,15.51,15.51,0,0,1-1.6-7.19,15.19,15.19,0,0,1,1.58-7.08,11.49,11.49,0,0,1,4.45-4.78,12.67,12.67,0,0,1,6.59-1.71,11.45,11.45,0,0,1,5.36,1.2,10.23,10.23,0,0,1,3.8,3.46V19.42a.85.85,0,0,1,.84-.84Zm-8.64,29.73a8.27,8.27,0,0,0,2.12-5.89,8.26,8.26,0,0,0-2.12-5.88,7.17,7.17,0,0,0-5.49-2.28,7.09,7.09,0,0,0-5.46,2.28,8.51,8.51,0,0,0-2.15,5.88,8.51,8.51,0,0,0,2.15,5.89,7.09,7.09,0,0,0,5.46,2.28,7.17,7.17,0,0,0,5.49-2.28"/><path class="cls-1" d="M292.37,19.69a3.89,3.89,0,0,1,1.05,2.8,3.86,3.86,0,0,1-1.05,2.76,3.55,3.55,0,0,1-2.66,1.1,3.51,3.51,0,0,1-2.65-1.1,4.18,4.18,0,0,1,0-5.56,3.49,3.49,0,0,1,2.65-1.11,3.52,3.52,0,0,1,2.66,1.11M286.51,29h5.67a.85.85,0,0,1,.84.84V54.91a.85.85,0,0,1-.84.84h-5.67Z"/><path class="cls-1" d="M296.22,29l6.1,0a.82.82,0,0,1,.8.57l6.37,19.66,5.91-18.78a2.07,2.07,0,0,1,2-1.46h3.5a2.1,2.1,0,0,1,2,1.45l6,18.79,6.22-19.66a.84.84,0,0,1,.8-.58h6l-9.72,26.8h-5.76a1.26,1.26,0,0,1-1.19-.85l-6.12-18L313,54.9a1.27,1.27,0,0,1-1.19.85H306Z"/><path class="cls-1" d="M360.81,54.91V52.49a8.71,8.71,0,0,1-3.6,2.66,13.32,13.32,0,0,1-5.06.9A10.79,10.79,0,0,1,347.21,55a7.91,7.91,0,0,1-3.28-3,8.14,8.14,0,0,1-1.15-4.26,7.13,7.13,0,0,1,2.66-5.88q2.65-2.13,7.51-2.18h7.81V39a4.53,4.53,0,0,0-1.55-3.66A6.89,6.89,0,0,0,354.7,34a15,15,0,0,0-7.21,2.07.83.83,0,0,1-1.15-.33L344.39,32a29.57,29.57,0,0,1,5.73-2.53,20.91,20.91,0,0,1,6-.78c3.48,0,6.17.84,8.09,2.51a8.92,8.92,0,0,1,2.93,7l.05,17.53h-5.57a.85.85,0,0,1-.84-.84m-2.3-5.2a4.6,4.6,0,0,0,2.25-3.28V44H354a7.42,7.42,0,0,0-3.83.77,2.77,2.77,0,0,0-1.23,2.53A3.27,3.27,0,0,0,350.22,50a5.48,5.48,0,0,0,3.48,1,8.48,8.48,0,0,0,4.81-1.33"/><path class="cls-1" d="M382.31,30.13a10.86,10.86,0,0,1,5.43-1.43v5.45a.83.83,0,0,1-.81.84,8.4,8.4,0,0,0-5.82,1.95,7.42,7.42,0,0,0-2.48,5.89V54.5a1.25,1.25,0,0,1-1.25,1.25h-5.26V29h5.67a.85.85,0,0,1,.84.84v4.32a9.72,9.72,0,0,1,3.68-4"/><path class="cls-1" d="M412.36,32.41q3.22,3.66,3.23,10.27c0,.86,0,1.51,0,2H395.76a7.47,7.47,0,0,0,7.66,6.11,10.13,10.13,0,0,0,3.93-.78,9.66,9.66,0,0,0,2.44-1.45,1.24,1.24,0,0,1,1.68.1l2.67,2.78a13.58,13.58,0,0,1-4.89,3.4A16.27,16.27,0,0,1,402.87,56a14.87,14.87,0,0,1-7.24-1.71,11.77,11.77,0,0,1-4.83-4.78,14.34,14.34,0,0,1-1.71-7.09,14.4,14.4,0,0,1,1.73-7.11,12.16,12.16,0,0,1,4.84-4.83,14.28,14.28,0,0,1,7.06-1.73q6.4,0,9.64,3.66m-2.73,7.86a6.53,6.53,0,0,0-1.95-4.71,7.61,7.61,0,0,0-9.69,0,7.6,7.6,0,0,0-2.38,4.73Z"/><polygon class="cls-1" points="159.91 69.2 155.45 69.2 155.45 80.76 153.81 80.76 153.81 69.2 149.33 69.2 149.33 67.73 159.91 67.73 159.91 69.2"/><polygon class="cls-1" points="172.24 79.3 172.24 80.76 163.44 80.76 163.44 67.73 172.07 67.73 172.07 69.2 165.09 69.2 165.09 73.42 171.16 73.42 171.16 74.8 165.09 74.8 165.09 79.3 172.24 79.3"/><path class="cls-1" d="M175.05,74.16a6.8,6.8,0,0,1,.42-2.34,6.3,6.3,0,0,1,1.2-2.09,6,6,0,0,1,1.94-1.5,5.82,5.82,0,0,1,2.61-.57,5.35,5.35,0,0,1,3,.79,5,5,0,0,1,1.85,2l-1.3.85a3.7,3.7,0,0,0-.7-1,3.88,3.88,0,0,0-.9-.68,3.69,3.69,0,0,0-1-.36,4.32,4.32,0,0,0-1-.11,3.93,3.93,0,0,0-1.91.45,4.54,4.54,0,0,0-1.4,1.17A5.25,5.25,0,0,0,177,72.4a6.13,6.13,0,0,0-.29,1.83,5.71,5.71,0,0,0,.34,2,5.58,5.58,0,0,0,.94,1.65A4.7,4.7,0,0,0,179.41,79a3.78,3.78,0,0,0,1.79.43,4.86,4.86,0,0,0,1.05-.13,4.34,4.34,0,0,0,1-.41,4.17,4.17,0,0,0,.92-.72,3.34,3.34,0,0,0,.7-1l1.37.75a4,4,0,0,1-.86,1.3,5.31,5.31,0,0,1-1.26.94,6.17,6.17,0,0,1-1.49.59,6.3,6.3,0,0,1-1.53.2,5.1,5.1,0,0,1-2.45-.59,6.49,6.49,0,0,1-1.92-1.53,7.07,7.07,0,0,1-1.26-2.14,6.94,6.94,0,0,1-.45-2.45"/><polygon class="cls-1" points="191.64 70.82 191.64 80.76 190 80.76 190 67.73 191.28 67.73 199.31 77.88 199.31 67.75 200.95 67.75 200.95 80.76 199.56 80.76 191.64 70.82"/><path class="cls-1" d="M211,80.85a5.55,5.55,0,0,1-2.49-.55,6.13,6.13,0,0,1-1.92-1.49,6.72,6.72,0,0,1-1.24-2.12,6.92,6.92,0,0,1,1.31-7,6.2,6.2,0,0,1,1.94-1.46,5.55,5.55,0,0,1,2.44-.54,5.39,5.39,0,0,1,2.48.58,6.42,6.42,0,0,1,1.91,1.51,6.84,6.84,0,0,1,1.24,2.12,6.9,6.9,0,0,1-1.3,7,6.13,6.13,0,0,1-1.93,1.45,5.55,5.55,0,0,1-2.44.54m-4.43-6.6a5.69,5.69,0,0,0,.32,1.92,5.33,5.33,0,0,0,.9,1.64,4.68,4.68,0,0,0,1.4,1.14,4,4,0,0,0,1.83.42,3.82,3.82,0,0,0,1.86-.45,4.4,4.4,0,0,0,1.39-1.18,5.09,5.09,0,0,0,.88-1.64,5.89,5.89,0,0,0,0-3.77,5.09,5.09,0,0,0-.91-1.63,4.54,4.54,0,0,0-1.41-1.13,3.84,3.84,0,0,0-1.79-.42,3.79,3.79,0,0,0-1.86.44,4.48,4.48,0,0,0-1.4,1.15,5.29,5.29,0,0,0-.88,1.64,5.69,5.69,0,0,0-.31,1.87"/><polygon class="cls-1" points="221.03 80.76 221.03 67.73 222.67 67.73 222.67 79.29 229.89 79.29 229.89 80.76 221.03 80.76"/><path class="cls-1" d="M238.2,80.85a5.55,5.55,0,0,1-2.49-.55,6.13,6.13,0,0,1-1.92-1.49,6.72,6.72,0,0,1-1.24-2.12,6.92,6.92,0,0,1,1.31-7,6.32,6.32,0,0,1,1.94-1.46,5.55,5.55,0,0,1,2.44-.54,5.36,5.36,0,0,1,2.48.58,6.42,6.42,0,0,1,1.91,1.51,7.06,7.06,0,0,1,1.25,2.12,7,7,0,0,1,.43,2.42,6.88,6.88,0,0,1-1.74,4.59,6,6,0,0,1-1.93,1.45,5.55,5.55,0,0,1-2.44.54m-4.43-6.6a6,6,0,0,0,.32,1.92,5.33,5.33,0,0,0,.9,1.64A4.6,4.6,0,0,0,236.4,79a3.9,3.9,0,0,0,1.82.42,3.82,3.82,0,0,0,1.86-.45,4.55,4.55,0,0,0,1.4-1.18,5.26,5.26,0,0,0,.87-1.64,5.92,5.92,0,0,0,.3-1.85,5.69,5.69,0,0,0-.32-1.92,4.9,4.9,0,0,0-.91-1.63,4.5,4.5,0,0,0-1.4-1.13,4.11,4.11,0,0,0-3.66,0,4.59,4.59,0,0,0-1.4,1.15,5.5,5.5,0,0,0-.88,1.64,5.69,5.69,0,0,0-.31,1.87"/><path class="cls-1" d="M257.4,79a5.22,5.22,0,0,1-3.94,1.85,5.06,5.06,0,0,1-2.4-.57,6.13,6.13,0,0,1-1.9-1.49,7.08,7.08,0,0,1-1.27-2.12,6.68,6.68,0,0,1-.47-2.46,7,7,0,0,1,1.72-4.6,6.06,6.06,0,0,1,1.91-1.44,6.12,6.12,0,0,1,5.5.26,5.16,5.16,0,0,1,1.85,2.06l-1.25.88a4,4,0,0,0-1.56-1.69,4.24,4.24,0,0,0-2.17-.55,3.66,3.66,0,0,0-1.78.43,4.44,4.44,0,0,0-1.37,1.14,5.22,5.22,0,0,0-.88,1.63,6.22,6.22,0,0,0-.31,1.92,5.63,5.63,0,0,0,.35,2,5.37,5.37,0,0,0,.95,1.63A4.25,4.25,0,0,0,251.8,79a4,4,0,0,0,1.79.41,4.9,4.9,0,0,0,3.81-2.06v-1.8h-2.79V74.27h4.18v6.49H257.4Z"/><rect class="cls-1" x="262.95" y="67.73" width="1.64" height="13.03"/><path class="cls-1" d="M273.31,67.73h1.38l5.29,13h-1.75l-1.53-3.82h-5.44l-1.51,3.82H268Zm3,7.93-2.33-6-2.41,6Z"/><polygon class="cls-1" points="297.89 79.3 297.89 80.76 289.1 80.76 289.1 67.73 297.73 67.73 297.73 69.2 290.74 69.2 290.74 73.42 296.82 73.42 296.82 74.8 290.74 74.8 290.74 79.3 297.89 79.3"/><path class="cls-1" d="M301.8,80.76v-13h4.49a6.82,6.82,0,0,1,2.73.52,5.62,5.62,0,0,1,2,1.39,5.88,5.88,0,0,1,1.18,2.07,8,8,0,0,1,.39,2.52,7.86,7.86,0,0,1-.44,2.69,5.71,5.71,0,0,1-1.26,2,5.47,5.47,0,0,1-2,1.32,6.66,6.66,0,0,1-2.58.47Zm9.09-6.53a6.6,6.6,0,0,0-.3-2,4.24,4.24,0,0,0-.9-1.58,3.93,3.93,0,0,0-1.45-1,4.81,4.81,0,0,0-1.95-.38h-2.84V79.29h2.84a4.79,4.79,0,0,0,2-.38,3.89,3.89,0,0,0,1.44-1.07,4.52,4.52,0,0,0,.88-1.6,6.51,6.51,0,0,0,.3-2"/><rect class="cls-1" x="316.53" y="67.73" width="1.64" height="13.03"/><polygon class="cls-1" points="332.28 69.2 327.81 69.2 327.81 80.76 326.17 80.76 326.17 69.2 321.7 69.2 321.7 67.73 332.28 67.73 332.28 69.2"/><path class="cls-1" d="M340.68,80.85a5.55,5.55,0,0,1-2.49-.55,6.13,6.13,0,0,1-1.92-1.49A6.72,6.72,0,0,1,335,76.69a7.1,7.1,0,0,1-.44-2.44,7,7,0,0,1,1.75-4.61,6.32,6.32,0,0,1,1.94-1.46,5.55,5.55,0,0,1,2.44-.54,5.36,5.36,0,0,1,2.48.58,6.59,6.59,0,0,1,1.92,1.51,7.25,7.25,0,0,1,1.24,2.12,7,7,0,0,1,.43,2.42,6.88,6.88,0,0,1-1.74,4.59,6,6,0,0,1-1.93,1.45,5.55,5.55,0,0,1-2.44.54m-4.43-6.6a6,6,0,0,0,.32,1.92,5.33,5.33,0,0,0,.9,1.64A4.6,4.6,0,0,0,338.88,79a3.9,3.9,0,0,0,1.82.42,3.79,3.79,0,0,0,1.86-.45,4.55,4.55,0,0,0,1.4-1.18,5.26,5.26,0,0,0,.87-1.64,5.92,5.92,0,0,0,.3-1.85,5.69,5.69,0,0,0-.32-1.92,4.9,4.9,0,0,0-.91-1.63,4.5,4.5,0,0,0-1.4-1.13,4.11,4.11,0,0,0-3.66,0,4.59,4.59,0,0,0-1.4,1.15,5.5,5.5,0,0,0-.88,1.64,5.69,5.69,0,0,0-.31,1.87"/><path class="cls-1" d="M350.74,80.76v-13h5.55a3.49,3.49,0,0,1,1.58.36,4,4,0,0,1,1.24,1,4.74,4.74,0,0,1,.81,1.33,4.27,4.27,0,0,1,.29,1.52,4.42,4.42,0,0,1-.19,1.31,4.07,4.07,0,0,1-.55,1.15,3.78,3.78,0,0,1-.86.88,3.21,3.21,0,0,1-1.12.53l3.14,5h-1.86l-3-4.68h-3.43v4.68Zm1.64-6.15h3.93a1.9,1.9,0,0,0,.92-.22,2.08,2.08,0,0,0,.7-.59,3,3,0,0,0,.46-.87,3.26,3.26,0,0,0,.16-1,2.78,2.78,0,0,0-.19-1,3.21,3.21,0,0,0-.51-.86,2.36,2.36,0,0,0-.75-.59,2,2,0,0,0-.9-.21h-3.82Z"/><rect class="cls-1" x="364.4" y="67.73" width="1.64" height="13.03"/><path class="cls-1" d="M374.75,67.73h1.38l5.29,13h-1.75l-1.53-3.82H372.7l-1.51,3.82h-1.75Zm3,7.93-2.33-6-2.41,6Z"/><polygon class="cls-1" points="384.46 80.76 384.46 67.82 386.09 67.82 386.09 79.31 393.26 79.31 393.26 80.76 384.46 80.76"/><path class="cls-1" d="M54.84,61.59c1.12-.37,2.34-2.35,2.4-3.63.26-5.45.11-10.92.11-17.15-2.88,1.07-5.14,2-7.45,2.75C34.47,48.75,19,53.88,3.63,59.14,2.29,59.6.31,60.88.25,61.86c-.32,5.69-.16,11.41-.16,17A5.52,5.52,0,0,0,1.41,79"/><path class="cls-1" d="M74.94,41.08c0,5.34.18,10.26-.06,15.16-.18,3.44,1.06,5.14,4.39,6.19,16.56,5.23,33.06,10.68,49.58,16a32.75,32.75,0,0,0,3.39.67c0-5.88.14-11.34-.12-16.78-.05-1-1.48-2.52-2.59-2.92-5-1.83-10.15-3.28-15.21-5"/><path class="cls-1" d="M56.36,39.51l0-1.32L.06,19.83c0,5.8.13,10.83,0,15.84-.1,2.6.7,3.89,3.3,4.68,8,2.42,15.85,5.16,23.77,7.73,1,.32,2.26.81,3.16.51"/><path class="cls-1" d="M75.93,38.21l0,1.29c8.58,3,17.16,6.09,25.77,9a4.81,4.81,0,0,0,2.79-.21C113,45.6,121.41,42.85,129.8,40c1-.33,2.28-1.49,2.31-2.3.2-5.7.11-11.4.11-17.82"/><path class="cls-1" d="M.92,18.37c10.45,3.4,19.65,6.41,28.88,9.36a4.14,4.14,0,0,0,2.39-.05c7.67-2.47,15.34-4.95,23-7.6a3.58,3.58,0,0,0,2.1-2.44c.19-5.7.1-11.4.1-17.63"/><path class="cls-1" d="M74.94,0c0,5.86.12,11.17,0,16.46-.08,2.41,1,3.33,3.06,4,7,2.21,14,4.6,21.06,6.84a6.42,6.42,0,0,0,3.53.39c9.23-2.88,18.41-5.92,28.85-9.31"/><path class="cls-1" d="M33.08,72.11a6.29,6.29,0,0,0-3.52-.27c-9.12,2.85-18.2,5.84-27.28,8.79v.9l55.08,17.9c0-6.32.14-11.91-.13-17.48,0-1-1.59-2.39-2.72-2.79"/><path class="cls-1" d="M77.48,79.27a4.29,4.29,0,0,0-2.42,3C74.81,87.74,75,93.19,75,99.46l55.26-18c-9.21-3.76-18.29-6.74-27.4-9.61a5.51,5.51,0,0,0-3.14.09"/></g></g></svg>