<?xml version="1.0" standalone="no"?>
<!DOCTYPE svg PUBLIC "-//W3C//DTD SVG 20010904//EN"
 "http://www.w3.org/TR/2001/REC-SVG-20010904/DTD/svg10.dtd">
<svg version="1.0" xmlns="http://www.w3.org/2000/svg"
 width="512.000000pt" height="512.000000pt" viewBox="0 0 512.000000 512.000000"
 preserveAspectRatio="xMidYMid meet">
<metadata>
Created by potrace 1.11, written by Peter Selinger 2001-2013
</metadata>
<g transform="translate(0.000000,512.000000) scale(0.100000,-0.100000)"
fill="#000000" stroke="none">
<path d="M410 5104 c-172 -46 -302 -176 -351 -349 -12 -42 -14 -386 -14 -2200
l0 -2150 24 -68 c51 -150 152 -253 306 -313 49 -19 103 -19 2165 -21 2305 -2
2157 -5 2278 54 106 52 207 180 243 308 21 75 21 4316 0 4390 -47 165 -157
280 -331 347 -29 11 -416 13 -2150 15 -1837 2 -2122 0 -2170 -13z m3801 -537
c162 -48 282 -171 324 -334 22 -83 21 -3270 0 -3350 -49 -180 -194 -312 -375
-340 -47 -7 -3167 -8 -3205 0 -186 35 -323 163 -370 344 -22 83 -21 3270 0
3350 50 185 202 319 389 342 28 3 755 6 1616 5 1421 -1 1570 -2 1621 -17z"/>
<path d="M982 4388 c-93 -16 -177 -87 -206 -175 -15 -45 -16 -190 -14 -1674
l3 -1624 22 -40 c29 -55 78 -100 138 -126 l50 -23 1585 0 1585 0 50 23 c66 29
112 75 141 139 l24 53 -2 1632 -3 1632 -22 40 c-29 55 -78 100 -138 126 l-50
23 -1562 0 c-859 1 -1579 -2 -1601 -6z m1284 -241 c119 -32 194 -76 276 -159
67 -68 88 -132 88 -261 l0 -102 -252 1 c-139 1 -255 2 -258 3 -3 0 -5 31 -4
69 1 37 -1 72 -5 77 -4 7 -102 10 -278 10 l-273 0 0 -652 c0 -615 1 -653 18
-654 127 -6 533 -2 535 6 2 6 3 109 3 230 l-1 220 -169 2 c-92 1 -171 4 -174
7 -3 4 -6 89 -6 191 -1 178 0 185 19 186 27 1 817 1 833 0 10 -1 12 -90 10
-463 l-3 -463 -24 -45 c-55 -104 -213 -211 -356 -241 -67 -14 -716 -18 -794
-5 -164 28 -323 135 -380 256 l-26 55 0 715 0 715 28 57 c38 78 116 150 212
198 128 63 160 66 580 65 283 -1 350 -4 401 -18z"/>
</g>
</svg>
